<?xml version="1.0" encoding="UTF-8"?>
<svg id="Layer_2" data-name="Layer 2" xmlns="http://www.w3.org/2000/svg" viewBox="0 0 269.42 309.58">
  <defs>
    <style>
      .cls-1 {
        fill: #1d1d1b;
      }

      .cls-2 {
        fill: #fff;
      }

      .cls-3 {
        fill: #ebf5ec;
      }

      .cls-4 {
        fill: #e51131;
      }
    </style>
  </defs>
  <g id="Laag_1" data-name="Laag 1">
    <g>
      <g>
        <path class="cls-3" d="M205.99,260.43L5.47,307.29c-1.9.28-3.44-1.31-3.44-3.55V53.37c0-2.24,1.54-4.28,3.44-4.57L205.99,1.94c1.9-.28,3.44,1.31,3.44,3.55v250.38c0,2.24-1.54,4.28-3.44,4.57Z"/>
        <path class="cls-2" d="M5.03,309.24c-1.12,0-2.18-.39-3.05-1.14-1.18-1.02-1.86-2.61-1.86-4.34V53.37c0-3.16,2.18-5.97,4.99-6.44L205.63.07h.08c1.38-.22,2.72.17,3.77,1.08,1.18,1.02,1.86,2.61,1.86,4.35v250.38c0,3.17-2.18,5.97-4.99,6.44L5.82,309.17h-.08c-.24.05-.48.06-.72.06ZM206.33,3.82L5.82,50.68h-.08c-.86.14-1.82,1.27-1.82,2.69v250.38c0,.62.2,1.16.54,1.46.19.16.41.23.66.21l200.5-46.86h.08c.86-.14,1.82-1.31,1.82-2.69V5.49c0-.62-.2-1.16-.54-1.46-.19-.16-.41-.23-.66-.21Z"/>
      </g>
      <g>
        <path class="cls-3" d="M248.6,275.6L6.19,307.55c-2.3.14-4.16-1.56-4.16-3.8V53.37c0-2.24,1.86-4.17,4.16-4.31l242.42-31.95c2.3-.14,4.16,1.56,4.16,3.8v250.38c0,2.24-1.86,4.17-4.16,4.31Z"/>
        <path class="cls-2" d="M5.92,309.58c-1.55,0-2.99-.56-4.1-1.6-1.17-1.1-1.81-2.6-1.81-4.23V53.37c0-3.26,2.68-6.08,5.99-6.32L248.41,15.1h.07c1.71-.11,3.29.46,4.5,1.59,1.17,1.1,1.81,2.6,1.81,4.23v250.38c0,3.26-2.68,6.08-5.99,6.32L6.38,309.57h-.07c-.13.01-.26.02-.39.02ZM248.78,19.13L6.38,51.08h-.07c-1.23.08-2.26,1.13-2.26,2.29v250.38c0,.5.19.95.54,1.28.37.35.89.52,1.42.5l242.4-31.95h.07c1.23-.08,2.26-1.13,2.26-2.29V20.91c0-.64-.29-1.05-.54-1.28-.37-.35-.86-.52-1.42-.5Z"/>
      </g>
      <g>
        <path class="cls-3" d="M263.23,291.9L6.19,307.55c-2.3.14-4.16-1.56-4.16-3.8V53.37c0-2.24,1.86-4.17,4.16-4.31l257.04-15.65c2.3-.14,4.16,1.56,4.16,3.8v250.38c0,2.24-1.86,4.17-4.16,4.31Z"/>
        <path class="cls-2" d="M5.92,309.58c-1.55,0-2.99-.56-4.1-1.6-1.17-1.1-1.81-2.6-1.81-4.23V53.37c0-3.29,2.72-6.12,6.06-6.33l257.04-15.65c1.7-.1,3.29.46,4.5,1.59,1.17,1.1,1.81,2.6,1.81,4.23v250.38c0,3.29-2.72,6.12-6.06,6.33L6.31,309.57c-.13,0-.26.01-.39.01ZM263.49,35.42s-.09,0-.14,0L6.31,51.08c-1.23.07-2.26,1.12-2.26,2.29v250.38c0,.5.19.95.54,1.28.38.36.91.54,1.48.5l257.04-15.65c1.23-.07,2.26-1.12,2.26-2.29V37.21c0-.64-.29-1.05-.54-1.28-.35-.33-.82-.51-1.34-.51Z"/>
      </g>
      <g>
        <path class="cls-4" d="M39.38,128c-1.76.13-2.51-.59-2.44-2.36l1.74-45.89c.07-1.77.87-2.61,2.63-2.74l32.68-2.43c1.76-.13,2.51.59,2.44,2.36l-.31,8.29c-.07,1.77-.87,2.61-2.63,2.74l-19.44,1.44-.21,5.45,13.73-1.02c1.76-.13,2.51.59,2.44,2.36l-.29,7.58c-.07,1.77-.87,2.61-2.63,2.74l-13.73,1.02-.23,6.09,19.44-1.44c1.76-.13,2.51.59,2.44,2.36l-.31,8.29c-.07,1.77-.87,2.61-2.63,2.74l-32.68,2.43Z"/>
        <path class="cls-4" d="M85.44,124.58c-1.76.13-2.51-.59-2.44-2.36l1.74-45.89c.07-1.77.87-2.61,2.63-2.74l23.45-1.74c10.57-.78,13.69,3.79,13.43,10.8l-.12,3.26c-.15,3.97-1.24,6.87-4.25,8.37,5.12.19,8.36,3.69,8.13,9.64l-.57,15.01c-.07,1.77-.87,2.61-2.63,2.74l-10.92.81c-1.76.13-2.51-.59-2.44-2.36l.41-10.84c.08-2.13-.59-2.99-2.56-2.85l-9.86.73-.53,13.88c-.07,1.77-.87,2.61-2.63,2.74l-10.85.81ZM99.93,94.41l5.28-.39c2.47-.18,3.15-1.65,3.23-3.56l.09-2.41c.07-1.91-.51-3.28-2.97-3.1l-5.28.39-.34,9.07Z"/>
      </g>
      <g>
        <path class="cls-1" d="M115.32,134.61c1.72-.28,2.52.35,2.61,2.06l1.36,26.61c.15,2.95.26,5.14-.81,8.71l-2.97,9.89c-.41,1.45-1.18,2.68-2.63,2.92l-9.16,1.5c-1.52.25-2.79-.17-3.27-1.54l-3.74-10.66c-.32-.85-.75-1.05-1.3-.96l-.62.1c-.55.09-.95.43-1.18,1.37l-2.67,11.71c-.34,1.44-1.34,2.29-2.79,2.53l-9.09,1.48c-1.52.25-2.6-.61-3.16-1.97l-3.93-8.9c-1.41-3.16-1.52-5.35-1.67-8.3l-1.35-26.48c-.09-1.71.63-2.59,2.35-2.87l10.61-1.73c1.72-.28,2.52.35,2.61,2.06l1.29,25.24,3.56-9.3c.68-1.7,1.75-2.43,3.54-2.72l2.89-.47c1.79-.29,2.92.08,3.76,1.53l4.44,7.99-1.29-25.24c-.09-1.71.56-2.58,2.35-2.87l10.27-1.68Z"/>
        <path class="cls-1" d="M140.77,180.25l-10.13,1.65c-1.72.28-2.52-.35-2.61-2.06l-.92-18.11c-.14-2.74.51-6.31,2.13-11.41l5.2-16.55c.47-1.67,1.54-2.53,3.4-2.84l18.53-3.03c1.79-.29,2.93.21,3.56,1.7l6.79,14.59c2.1,4.5,3.11,7.79,3.25,10.54l.92,18.11c.09,1.71-.63,2.59-2.35,2.87l-10.4,1.7c-1.86.3-2.73-.32-2.81-2.03l-.49-9.6-12.19,1.99.49,9.6c.09,1.71-.63,2.59-2.35,2.87ZM142.69,155.18l10.82-1.77-3.77-9.9c-.39-.77-.82-1.04-1.37-.95l-1.72.28c-.55.09-.95.5-1.25,1.38l-2.71,10.95Z"/>
        <path class="cls-1" d="M180.73,173.73c-1.72.28-2.52-.35-2.61-2.06l-.41-8.03c-.09-1.72.63-2.59,2.35-2.88l18.53-3.03c1.17-.19,1.75-1.18,1.69-2.28-.08-1.58-.73-2.09-1.91-2.04l-10.41.25c-6.52.1-10.87-1.96-11.26-9.64l-.37-7.2c-.4-7.82,4.69-12.94,13.65-14.4l19.29-3.15c1.72-.28,2.52.35,2.61,2.06l.42,8.16c.09,1.71-.63,2.59-2.35,2.87l-16.05,2.62c-1.17.19-1.82,1.13-1.75,2.36.06,1.24.79,1.95,1.97,1.89l10.34-.3c6.52-.1,10.94,1.95,11.33,9.63l.37,7.2c.4,7.82-4.76,12.95-13.65,14.4l-21.77,3.56Z"/>
      </g>
      <g>
        <path class="cls-4" d="M45.87,251.5c-1.68.12-2.38-.56-2.32-2.25l1.66-43.67c.06-1.68.83-2.48,2.5-2.61l31.1-2.31c1.67-.12,2.38.56,2.32,2.25l-.3,7.89c-.06,1.68-.83,2.48-2.5,2.6l-18.5,1.37-.2,5.19,13.07-.97c1.68-.12,2.38.56,2.32,2.25l-.27,7.21c-.06,1.68-.83,2.48-2.5,2.6l-13.07.97-.22,5.8,18.5-1.37c1.67-.12,2.38.56,2.32,2.25l-.3,7.89c-.06,1.68-.83,2.48-2.5,2.6l-31.1,2.31Z"/>
        <path class="cls-4" d="M89.69,248.24c-1.67.12-2.38-.56-2.32-2.25l1.66-43.67c.06-1.68.83-2.48,2.5-2.61l31.1-2.31c1.68-.12,2.38.56,2.32,2.25l-.3,7.89c-.06,1.68-.83,2.48-2.5,2.6l-18.5,1.37-.2,5.19,13.07-.97c1.68-.12,2.38.56,2.32,2.25l-.27,7.21c-.06,1.68-.83,2.48-2.5,2.6l-13.07.97-.22,5.8,18.5-1.37c1.68-.12,2.38.56,2.32,2.25l-.3,7.89c-.06,1.68-.83,2.48-2.5,2.6l-31.1,2.31Z"/>
        <path class="cls-4" d="M133.52,244.99c-1.68.12-2.39-.56-2.32-2.25l1.66-43.67c.06-1.68.83-2.48,2.5-2.61l6.97-.52c1.74-.13,2.8.26,3.89,1.53l12.43,14,.54-14.35c.06-1.68.83-2.48,2.5-2.61l10.05-.75c1.67-.12,2.38.56,2.32,2.25l-1.66,43.67c-.06,1.68-.83,2.48-2.5,2.61l-10.05.75c-1.68.12-2.38-.56-2.32-2.25l.31-8.29-10.93-13.1-.84,22.24c-.06,1.68-.83,2.48-2.5,2.6l-10.05.75Z"/>
        <path class="cls-4" d="M182.77,241.33c-1.68.13-2.38-.56-2.32-2.25l.3-7.89c.06-1.68.83-2.48,2.51-2.61l18.03-1.34c1.14-.08,1.77-1.01,1.81-2.08.06-1.55-.52-2.11-1.65-2.16l-10-.67c-6.26-.48-10.25-2.87-9.96-10.42l.27-7.08c.29-7.68,5.61-12.24,14.32-12.89l18.76-1.39c1.68-.12,2.38.56,2.32,2.25l-.3,8.02c-.06,1.68-.83,2.48-2.51,2.61l-15.61,1.16c-1.14.08-1.84.94-1.89,2.16-.05,1.21.59,1.97,1.73,2.02l9.94.61c6.26.48,10.32,2.86,10.03,10.41l-.27,7.08c-.29,7.68-5.68,12.25-14.32,12.89l-21.18,1.57Z"/>
      </g>
      <g>
        <path class="cls-1" d="M170.43,275.72c-1.7.34-2.51-.25-2.66-1.93l-1.21-13.65c-.16-1.75.53-2.57,2.23-2.91l13.7-2.75c1.7-.34,2.5.18,2.66,1.93l1.21,13.65c.15,1.68-.53,2.57-2.23,2.91l-13.7,2.75Z"/>
        <path class="cls-1" d="M196.47,270.49c-1.7.34-2.51-.25-2.66-1.93l-1.21-13.65c-.16-1.75.53-2.57,2.23-2.91l13.7-2.75c1.7-.34,2.5.18,2.66,1.93l1.21,13.65c.15,1.68-.53,2.57-2.23,2.91l-13.7,2.75Z"/>
        <path class="cls-1" d="M222.51,265.27c-1.7.34-2.51-.25-2.66-1.93l-1.21-13.65c-.16-1.75.53-2.57,2.23-2.91l13.7-2.75c1.7-.34,2.5.18,2.66,1.93l1.21,13.65c.15,1.68-.53,2.57-2.22,2.91l-13.7,2.75Z"/>
      </g>
    </g>
  </g>
</svg>